Duration: 01:58:26.89, start: 0.000000, bitrate: 826 kb/s
Stream #0.0: Video: mpeg4, yuv420p, 640x272 [PAR 1:1 DAR 40:17], 23.98 tbr, 23.98 tbn, 23.98 tbc
Stream #0.1: Audio: mp3, 48000 Hz, 2 channels, s16, 128 kb/s